HIERARCHY
ROOT Hips
{
  OFFSET 0 0 0
  CHANNELS 6 Xposition Yposition Zposition Zrotation Yrotation Xrotation
  JOINT LeftThigh
  {
    OFFSET 8.409438 0 -5.917753
    CHANNELS 3 Zrotation Yrotation Xrotation
    JOINT LeftLeg
    {
      OFFSET 0 0 -42.358652
      CHANNELS 3 Zrotation Yrotation Xrotation
      JOINT LeftFoot
      {
        OFFSET 0 0 -39.357303
        CHANNELS 3 Zrotation Yrotation Xrotation
      }
    }
  }
  JOINT RightThigh
  {
    OFFSET -8.409438 0 -5.917753
    CHANNELS 3 Zrotation Yrotation Xrotation
    JOINT RightLeg
    {
      OFFSET 0 0 -42.358652
      CHANNELS 3 Zrotation Yrotation Xrotation
      JOINT RightFoot
      {
        OFFSET 0 0 -39.357303
        CHANNELS 3 Zrotation Yrotation Xrotation
      }
    }
  }
  JOINT SpineLow
  {
    OFFSET 0 0 4.719101
    CHANNELS 3 Zrotation Yrotation Xrotation
    JOINT SpineMid
    {
      OFFSET 0 0 12.899191
      CHANNELS 3 Zrotation Yrotation Xrotation
      JOINT Chest
      {
        OFFSET 0 0 12.899191
        CHANNELS 3 Zrotation Yrotation Xrotation
        JOINT LeftShoulder
        {
          OFFSET 7.550562 1.41573 9.438202
          CHANNELS 3 Zrotation Yrotation Xrotation
          JOINT LeftArm
          {
            OFFSET 9.155056 0 4.247191
            CHANNELS 3 Zrotation Yrotation Xrotation
            JOINT LeftForearm
            {
              OFFSET 0 0 25.771955
              CHANNELS 3 Zrotation Yrotation Xrotation
              JOINT LeftHand
              {
                OFFSET 0 0 25.197169
                CHANNELS 3 Zrotation Yrotation Xrotation
              }
            }
          }
        }
        JOINT RightShoulder
        {
          OFFSET -7.550562 1.41573 9.438202
          CHANNELS 3 Zrotation Yrotation Xrotation
          JOINT RightArm
          {
            OFFSET -9.155056 0 4.247191
            CHANNELS 3 Zrotation Yrotation Xrotation
            JOINT RightForearm
            {
              OFFSET 0 0 -25.771955
              CHANNELS 3 Zrotation Yrotation Xrotation
              JOINT RightHand
              {
                OFFSET 0 0 -25.197169
                CHANNELS 3 Zrotation Yrotation Xrotation
              }
            }
          }
        }
        JOINT Neck
        {
          OFFSET 0 0 15.101124
          CHANNELS 3 Zrotation Yrotation Xrotation
          JOINT Head
          {
            OFFSET 0 0 11.325843
            CHANNELS 3 Zrotation Yrotation Xrotation
            End Site
            {
              OFFSET 0 0 14.157303
            }
          }
        }
      }
    }
  }
}
MOTION
Frames: 8
Frame Time: 0.0
0.0  89.887642  0.0  79.423902  -33.730749  -170.941684  24.761964  -59.814848  -39.953791  43.812212  49.82229  92.507703  0.515674  -0.783872  10.572918  -7.33465  37.970484  -17.270981  10.725011  16.795957  31.765855  9.257187  3.67744  -1.902538  2.419189  4.456831  2.743483  7.18462  11.872118  8.020423  7.18462  11.872118  8.020422  2.747613  7.673498  11.156324  -169.558561  49.088402  -157.289679  -34.632765  -13.543987  95.539078  80.859425  72.516946  -17.271554  9.152431  -10.120184  19.461839  131.181297  34.615253  40.009554  -22.993478  14.666227  -81.158935  88.847483  20.152785  -2.848846  21.873579  16.993945  11.391234  15.964127  13.173655  7.866703  
0.0  89.887642  0.0  76.814264  -34.270876  -169.183665  27.694513  -59.51052  -43.07364  47.453114  51.256259  97.522143  1.031716  -0.675619  10.476632  -9.396434  36.873479  -17.388559  11.096013  16.74665  31.929952  9.123532  3.609311  -1.721973  2.351649  4.329703  2.821095  6.992928  11.525661  8.204676  6.992928  11.525661  8.204676  3.952653  7.415295  10.350294  -171.300215  49.636973  -155.959058  -34.118488  -13.353676  95.790124  83.180946  73.856768  -15.096684  9.946952  -10.427451  19.373732  129.209068  35.189921  39.330176  -23.291003  13.514488  -80.802266  88.094212  20.813745  -2.40252  20.92329  16.56695  11.387535  15.271065  12.833736  7.9092  
0.0  89.887642  0.0  74.149861  -34.826991  -167.341005  27.368937  -60.223564  -43.458104  53.265408  52.952962  102.724794  1.582378  -0.522281  10.219168  -10.873538  35.838525  -16.916531  10.936897  16.619454  31.972911  8.960076  3.574044  -1.595059  2.305363  4.190692  2.89294  6.856477  11.145065  8.375706  6.856476  11.145064  8.375706  4.903431  7.100444  9.508058  -173.322673  49.802158  -154.909414  -33.563133  -13.412053  96.131508  85.215995  75.161775  -13.194547  10.660216  -10.683527  19.306373  127.410871  35.349625  38.532466  -23.767497  12.243876  -80.541949  87.709983  21.469197  -1.983201  19.970199  16.12314  11.344022  14.576762  12.479949  7.921227  
0.0  89.887642  0.0  71.523383  -35.356866  -165.287117  24.597729  -61.640745  -41.830533  60.856013  54.79933  107.891703  2.525649  -0.282869  10.010685  -12.970909  34.453352  -16.945224  11.053944  16.519362  31.927793  8.975499  3.719586  -1.469155  2.25837  4.041191  2.915608  6.708048  10.741512  8.410457  6.708049  10.741512  8.410457  5.76526  6.944869  8.780194  -175.659796  49.789073  -153.695414  -33.014324  -13.891595  96.128887  87.44697  76.401954  -11.036904  11.369883  -10.833201  19.244247  125.480945  35.434507  37.666302  -24.287825  10.982976  -80.318054  87.351058  22.360221  -1.914717  19.093506  15.670077  11.291222  13.939139  12.120691  7.923128  
0.0  89.887642  0.0  69.024629  -35.863318  -163.022063  21.01322  -63.311741  -39.640406  69.758853  56.229233  113.58784  3.784525  -0.086276  9.849399  -14.080503  33.366226  -16.652508  10.692757  16.257692  31.865476  8.754963  3.702773  -1.325367  2.34489  3.918175  2.939884  6.93095  10.39236  8.474538  6.93095  10.392359  8.474538  5.776873  6.612717  7.940607  -178.394527  49.568332  -152.8894  -32.636609  -14.442355  96.221266  90.117376  77.532199  -8.358882  11.408082  -11.072367  19.041787  123.235834  35.569493  36.544462  -24.555388  9.691856  -80.295686  87.223807  23.250963  -1.906586  17.749207  15.037749  11.076793  12.9613  11.613182  7.821086  
0.0  89.887642  0.0  66.649983  -36.222304  -160.473782  18.112387  -64.508895  -37.984028  78.435868  56.895849  119.225356  5.112349  0.049773  9.733058  -14.97429  32.311433  -16.467082  10.083703  15.975044  31.68264  8.53954  3.675687  -1.197322  2.453708  3.819649  2.93451  7.21406  10.110196  8.462983  7.214059  10.110196  8.462983  5.444549  6.401668  6.848163  178.83416  49.000572  -152.072222  -32.019493  -15.235557  96.094095  92.383662  78.492452  -5.998515  11.157134  -11.198651  18.698122  120.82794  35.704944  35.266792  -24.782737  8.663705  -80.416899  87.137216  24.187513  -2.162491  16.276209  14.386254  10.745556  11.888852  11.08686  7.632179  
0.0  89.887642  0.0  63.714026  -36.671336  -157.505486  16.844074  -65.45834  -37.844207  85.579291  56.91633  124.377859  6.257885  0.190209  9.586167  -15.836923  30.998076  -15.911594  9.220554  15.745278  31.305427  8.339697  3.664194  -1.103229  2.505456  3.657019  2.910493  7.327926  9.663194  8.382187  7.327926  9.663194  8.382187  5.167979  6.296205  5.746573  175.449358  48.539408  -151.736601  -31.733202  -15.823086  95.738419  93.684078  79.38798  -4.537466  10.98421  -11.094994  18.540696  118.117976  36.109972  33.822695  -24.895437  7.812698  -80.73594  87.284159  24.983579  -2.51943  14.80894  13.737258  10.396026  10.818906  10.563924  7.425707  
0.0  89.887642  0.0  60.371742  -36.883234  -154.26215  17.533818  -65.829375  -39.502804  90.73812  56.109937  129.096574  6.828638  0.277082  9.225026  -16.644258  29.67945  -15.272403  8.111703  15.520677  30.988171  8.141847  3.657759  -0.990662  2.550434  3.480672  2.898071  7.423198  9.178452  8.330071  7.423198  9.178452  8.33007  4.955515  6.258392  4.991151  171.885976  48.067432  -150.975558  -31.521418  -16.260795  95.051949  93.666526  80.237164  -4.419421  10.404572  -10.971553  18.423964  115.384725  36.584005  32.395073  -25.011403  7.216282  -81.20027  87.527199  25.640923  -3.076012  13.232566  13.055471  10.051517  9.666088  10.016542  7.222571  
